<?xml version="1.0" standalone="no"?>
<!DOCTYPE svg PUBLIC "-//W3C//DTD SVG 20010904//EN"
 "http://www.w3.org/TR/2001/REC-SVG-20010904/DTD/svg10.dtd">
<svg version="1.0" xmlns="http://www.w3.org/2000/svg"
 width="206.000000pt" height="206.000000pt" viewBox="0 0 206.000000 206.000000"
 preserveAspectRatio="xMidYMid meet">
<metadata>
Created by potrace 1.11, written by Peter Selinger 2001-2013
</metadata>
<g transform="translate(0.000000,206.000000) scale(0.100000,-0.100000)"
fill="#000000" stroke="none">
<path d="M850 2006 c-432 -83 -751 -389 -835 -801 -14 -66 -14 -262 0 -337 54
-309 257 -577 544 -718 159 -79 311 -111 496 -105 145 4 154 5 245 31 309 85
563 303 681 583 62 147 89 356 66 511 -17 114 -72 265 -132 359 -28 45 -28 45
-11 91 29 81 11 155 -52 212 -63 57 -150 71 -225 37 -23 -10 -37 -6 -129 39
-149 74 -269 103 -443 107 -83 2 -166 -2 -205 -9z m335 -131 c93 -19 160 -41
240 -80 l90 -43 -3 -46 c-10 -121 77 -210 204 -210 69 0 66 3 116 -99 26 -52
54 -133 73 -212 16 -66 13 -244 -5 -328 -23 -104 -81 -241 -125 -295 -7 -9
-32 -41 -55 -69 -99 -128 -300 -252 -475 -294 -92 -22 -259 -30 -355 -17 -167
22 -375 126 -499 249 -117 116 -215 296 -237 435 -3 20 -8 46 -10 58 -8 38 -5
200 5 252 69 362 375 650 746 703 62 9 238 7 290 -4z"/>
<path d="M943 1351 c-206 -53 -315 -282 -222 -466 128 -250 495 -242 621 14
32 64 32 195 0 263 -29 64 -101 134 -169 165 -61 28 -170 39 -230 24z"/>
</g>
</svg>
