<svg height='200' width='200'  fill="#ffffff" xmlns="http://www.w3.org/2000/svg" xmlns:xlink="http://www.w3.org/1999/xlink" version="1.1" x="0px" y="0px" viewBox="0 0 32 32" enable-background="new 0 0 32 32" xml:space="preserve"><g><g><path fill="#ffffff" d="M27.7,31.3H4.3V0.8h23.4V31.3z M5.8,29.8h20.4V2.3H5.8V29.8z"></path></g><g><path fill="#ffffff" d="M22.4,31.3H9.6v-7.7h12.9V31.3z M11.1,29.8h9.9V25h-9.9V29.8z"></path></g><g><path fill="#ffffff" d="M22.4,8.5H9.6V0.8h12.9V8.5z M11.1,7h9.9V2.3h-9.9V7z"></path></g><g><rect x="5.1" y="15.3" fill="#ffffff" width="6.9" height="1.5"></rect></g><g><rect x="20" y="15.3" fill="#ffffff" width="6.9" height="1.5"></rect></g><g><path fill="#ffffff" d="M16,20.8c-2.6,0-4.8-2.1-4.8-4.8s2.1-4.8,4.8-4.8c2.6,0,4.8,2.1,4.8,4.8S18.6,20.8,16,20.8z M16,12.7    c-1.8,0-3.3,1.5-3.3,3.3c0,1.8,1.5,3.3,3.3,3.3c1.8,0,3.3-1.5,3.3-3.3C19.3,14.2,17.8,12.7,16,12.7z"></path></g></g></svg>