<svg height='200' width='200'  fill="#ffffff" xmlns="http://www.w3.org/2000/svg" xmlns:xlink="http://www.w3.org/1999/xlink" version="1.1" x="0px" y="0px" viewBox="0 0 512 512" enable-background="new 0 0 512 512" xml:space="preserve"><path d="M362.659,0.002H149.341c-52.937,0-95.999,43.062-95.999,96v319.996c0,52.922,43.062,96,95.999,96h213.318  c52.938,0,95.999-43.078,95.999-96V96.002C458.658,43.064,415.597,0.002,362.659,0.002z M434.221,74.658h-11.218  c-3.156-8.844-8.281-16.969-15.156-23.844c-4-4-8.438-7.406-13.188-10.188V28.564c7.594,3.625,14.594,8.562,20.734,14.703  C424.315,52.205,430.722,62.955,434.221,74.658z M437.346,117.329h-10.687V96.002h10.687V117.329z M74.67,394.654h10.672v21.344  H74.67V394.654z M405.347,394.654h-10.688v-21.328h10.688V394.654z M117.341,394.654h-10.672v-21.328h10.672V394.654z   M394.659,117.329h10.688v21.328h-10.688V117.329z M405.347,351.998h-10.688v-21.342h10.688V351.998z M405.347,309.328h-10.688V288  h10.688V309.328z M405.347,266.656h-10.688v-21.328h10.688V266.656z M394.659,160.001h10.688v21.328h-10.688V160.001z   M394.659,202.656h10.688V224h-10.688V202.656z M352.003,64.002h-21.344V53.33h21.344V64.002z M224.004,85.33h64v10.672h-64V85.33z   M266.668,64.002H245.34V53.33h21.328V64.002z M288.004,53.33h21.343v10.672h-10.688h-10.655V53.33z M224.004,53.33v10.672H213.34  h-10.672V53.33H224.004z M181.341,64.002h-21.336V53.33h21.336V64.002z M141.873,88.518c2.117-2.109,4.632-3.188,7.468-3.188h53.328  v21.327c0,5.906,4.781,10.672,10.672,10.672h85.319c5.906,0,10.688-4.766,10.688-10.672V85.33h53.312  c2.844,0,5.359,1.078,7.469,3.203c2.125,2.109,3.219,4.625,3.219,7.469v149.326h-65.094c-4.938-24.312-26.499-42.672-52.249-42.672  c-25.757,0-47.304,18.359-52.257,42.672h-65.077V96.002C138.669,93.158,139.748,90.643,141.873,88.518z M225.84,245.328  c4.398-12.422,16.257-21.344,30.164-21.344s25.766,8.922,30.156,21.344H225.84z M286.16,266.656  c-4.406,12.422-16.25,21.328-30.156,21.328s-25.757-8.906-30.164-21.328H286.16z M117.341,181.329h-10.672v-21.328h10.672V181.329z   M117.341,202.656V224h-10.672v-21.344H117.341z M117.341,138.657h-10.672v-21.328h10.672V138.657z M117.341,351.998h-10.672  v-21.342h10.672V351.998z M117.341,309.328h-10.672V288h10.672V309.328z M117.341,266.656h-10.672v-21.328h10.672V266.656z   M160.005,447.998h21.336v10.656h-21.336V447.998z M288.004,426.654h-64v-10.672h64V426.654z M245.34,447.998h21.328v10.656H245.34  V447.998z M224.004,458.654h-21.336v-10.656h10.672h10.664V458.654z M288.004,458.654v-10.656h10.655h10.688v10.656H288.004z   M330.659,447.998h21.344v10.656h-21.344V447.998z M370.128,423.467c-2.109,2.109-4.625,3.188-7.469,3.188h-53.312v-21.328  c0-5.891-4.781-10.672-10.688-10.672H213.34c-5.891,0-10.672,4.781-10.672,10.672v21.328h-53.328c-2.836,0-5.351-1.078-7.476-3.188  c-2.117-2.125-3.195-4.641-3.195-7.469V266.656h65.077c4.953,24.312,26.5,42.672,52.257,42.672c25.75,0,47.312-18.359,52.249-42.672  h65.094v149.342C373.347,418.826,372.253,421.342,370.128,423.467z M405.347,96.002h-10.688l0,0c0-8.578-3.25-16.391-9.438-22.562  c-3.5-3.5-7.5-6.062-11.875-7.625V54.689c7.25,1.906,13.922,5.719,19.422,11.203C400.878,74.002,405.347,84.689,405.347,96.002  L405.347,96.002z M309.347,32.002V21.33h21.312v10.672H309.347z M288.004,32.002h-21.336V21.33h21.336V32.002z M245.34,32.002  h-21.335V21.33h21.335V32.002z M202.668,32.002h-21.328V21.33h21.328V32.002z M119.24,65.893c5.492-5.484,12.18-9.297,19.43-11.203  v11.125c-4.375,1.562-8.391,4.125-11.883,7.625c-6.18,6.172-9.445,13.984-9.445,22.562l0,0h-10.672l0,0  C106.669,84.689,111.138,74.002,119.24,65.893z M85.342,117.329H74.67V96.002h10.672V117.329z M85.342,138.657v21.328H74.67v-21.328  H85.342z M85.342,181.329v21.327H74.67v-21.327H85.342z M85.342,223.984v21.344H74.67v-21.344H85.342z M85.342,266.656v21.328H74.67  v-21.328H85.342z M85.342,309.328v21.328H74.67v-21.328H85.342z M85.342,351.982v21.344H74.67v-21.344H85.342z M117.341,415.998  c0,8.562,3.266,16.375,9.445,22.547c3.492,3.5,7.508,6.062,11.883,7.625v11.125c-7.25-1.906-13.938-5.719-19.43-11.203  c-8.102-8.109-12.57-18.797-12.57-30.094H117.341z M202.668,479.998v10.656h-21.328v-10.656H202.668z M224.004,479.998h21.335  v10.656h-21.335V479.998z M266.668,479.998h21.336v10.656h-21.336V479.998z M309.347,479.998h21.312v10.656h-21.312V479.998z   M392.769,446.092c-5.484,5.484-12.172,9.297-19.422,11.203V446.17c4.375-1.562,8.375-4.125,11.875-7.625  c6.188-6.172,9.438-13.984,9.438-22.547h10.688C405.347,427.295,400.878,437.982,392.769,446.092z M426.659,394.654h10.687v21.344  h-10.687V394.654z M426.659,373.326v-21.344h10.687v21.344H426.659z M426.659,330.656v-21.328h10.687v21.328H426.659z   M426.659,287.984v-21.328h10.687v21.328H426.659z M426.659,245.328v-21.344h10.687v21.344H426.659z M426.659,202.656v-21.327  h10.687v21.327H426.659z M426.659,159.985v-21.328h10.687v21.328H426.659z M373.347,22.096v10.797  c-3.5-0.594-7.062-0.891-10.688-0.891h-10.656V21.33h10.656C366.269,21.33,369.831,21.58,373.347,22.096z M160.005,21.33v10.672  h-10.664c-3.609,0-7.171,0.297-10.671,0.891V22.096c3.508-0.516,7.07-0.766,10.671-0.766H160.005z M96.615,43.268  c6.141-6.141,13.141-11.078,20.727-14.703v12.062c-4.75,2.781-9.18,6.188-13.188,10.188c-6.867,6.875-11.992,15-15.14,23.844H77.787  C81.287,62.955,87.686,52.205,96.615,43.268z M77.787,437.326h11.227c3.148,8.844,8.273,16.969,15.14,23.844  c4.008,4,8.438,7.406,13.188,10.188v12.062c-7.586-3.625-14.586-8.562-20.727-14.703C87.686,459.779,81.287,449.029,77.787,437.326z   M138.669,489.889v-10.797c3.5,0.594,7.062,0.906,10.671,0.906h10.664v10.656h-10.664  C145.739,490.654,142.177,490.404,138.669,489.889z M352.003,490.654v-10.656h10.656c3.625,0,7.188-0.312,10.688-0.906v10.797  c-3.516,0.516-7.078,0.766-10.688,0.766H352.003z M415.394,468.717c-6.141,6.141-13.141,11.078-20.734,14.703v-12.062  c4.75-2.781,9.188-6.188,13.188-10.188c6.875-6.875,12-15,15.156-23.844h11.218C430.722,449.029,424.315,459.779,415.394,468.717z"></path></svg>